<svg version="1" width="266.667" height="266.667" viewBox="0 0 200.000000 200.000000"><path d="M51.3 47.1L34 57.2v41.3l14.5 8.3 14.5 8.4v34.6l17.6 10.1c9.7 5.5 17.9 10.1 18.2 10.1.4 0 8.4-4.5 17.7-9.9l17-9.9.3-17.3.2-17.4 14.8-8.6 14.7-8.6.3-20.4.2-20.5-17.2-9.9c-9.4-5.5-17.5-10.1-18-10.3-.4-.2-7.3 3.5-15.4 8.2L98.7 54 84 45.5C75.9 40.8 69.1 37 68.9 37c-.2 0-8.2 4.6-17.6 10.1zm31.5 10.7c6.4 3.8 12.7 7.4 13.9 8.1 1.9 1 4 .1 16.9-7.4l14.7-8.6 12.1 7 12.1 7 .2 13.8.3 13.8-14.8 8.5-14.7 8.5-.5 17.5-.5 17.5-11.5 6.7c-6.3 3.7-12 6.6-12.5 6.5-.6-.1-6.1-3.1-12.3-6.6L75 143.7v-34.5l-9.2-5.4c-5.1-3-11.9-6.9-15.1-8.7l-5.8-3.3.3-14.1.3-14.1L57 56.8c6.3-3.7 12.1-6.6 12.8-6.3.7.3 6.5 3.6 13 7.3z"/></svg>