<svg id="Capa_1" enable-background="new 0 0 512 512" height="512" viewBox="0 0 512 512" width="512" xmlns="http://www.w3.org/2000/svg"><g><path d="m41.29 477.186v-305.548c0-13.682 11.092-24.774 24.774-24.774h379.871c13.682 0 24.774 11.092 24.774 24.774v305.548" fill="#6f6571"/><path d="m445.935 444.154h-16.517l-9.752-9.184h-324.666l-12.419 9.184h-16.516c-4.561 0-8.258-3.697-8.258-8.258v-264.258c0-4.561 3.697-8.258 8.258-8.258h379.871c4.561 0 8.258 3.697 8.258 8.258v264.258c0 4.561-3.698 8.258-8.259 8.258z" fill="#c3ddff"/><path d="m421.161 427.638h-330.322c-9.122 0-16.516-7.395-16.516-16.516v-214.71c0-9.122 7.395-16.516 16.516-16.516h330.323c9.122 0 16.516 7.395 16.516 16.516v214.71c-.001 9.122-7.395 16.516-16.517 16.516z" fill="#dbeaff"/><path d="m188.537 209.055-25.669 29.947c-3.849 4.49-5.964 10.209-5.964 16.123v9.833c0 6.297 6.764 10.277 12.269 7.219l35.577-19.765z" fill="#ff8086"/><path d="m204.749 252.412 26.477-14.709-24.774-49.548-17.915 20.901c3.825 15.016 9.247 29.535 16.212 43.356z" fill="#e5646e"/><path d="m305.548 188.154 43.584 50.848c3.849 4.49 5.964 10.209 5.964 16.123v9.833c0 6.297-6.764 10.277-12.269 7.219l-62.054-34.474z" fill="#ff8086"/><path d="m8.258 468.928v18.042h487.226l16.516-9.784v-8.258c0-4.561-3.697-8.258-8.258-8.258h-487.226c-4.561 0-8.258 3.698-8.258 8.258z" fill="#dad8db"/><path d="m299.684 80.799-72.101-12.714c-12.585 26.081-19.71 55.65-19.71 87.037 0 39.872 11.543 76.774 31.127 107.355l53.145-16.516c13.779-26.994 21.661-57.902 21.661-90.839 0-26.39-5.037-51.495-14.122-74.323z" fill="#ffe07d"/><path d="m251.061 245.961c-6.662 0-12.57-4.043-15.262-10.137-10.818-24.496-16.96-51.793-16.96-80.701 0-26.42 5.087-51.514 14.228-74.326l-5.067-5.076-15.685 5.079c-9.084 22.827-14.121 47.932-14.121 74.322 0 39.872 11.543 76.774 31.127 107.355l25.179 10.161 28.179-10.161c3.394-5.3 6.573-10.854 9.466-16.516z" fill="#ffd064"/><path d="m279.035 295.509h-46.069c-5.186 0-9.089-4.725-8.109-9.818l4.465-23.215h53.359l4.465 23.215c.978 5.093-2.925 9.818-8.111 9.818z" fill="#c8c5c9"/><path d="m278 146.637c0 10.048-3.208 18.926-11.805 22.812-3.109 1.406-6.561 2.188-10.195 2.188-13.682 0-24.774-11.092-24.774-24.774 0-3.621.777-7.06 2.173-10.16 3.879-8.616 12.54-11.9 22.602-11.9 13.681.001 21.999 8.152 21.999 21.834z" fill="#c3ddff"/><path d="m16.516 460.67h-8.258c-4.561 0-8.258 3.697-8.258 8.258v8.258c0 9.121 7.395 16.516 16.516 16.516h478.968c9.121 0 16.516-7.395 16.516-16.516h-478.968c-9.121 0-16.516-7.394-16.516-16.516z" fill="#c8c5c9"/><path d="m470.71 477.186h-429.42" fill="#6f6571"/><path d="m371.613 386.348c-6.628 0-12.969 1.17-18.898 3.224-5.555-16.243-20.783-27.998-38.908-27.998-10.108 0-19.245 3.775-26.422 9.805.975-3.117 1.648-6.367 1.648-9.805 0-18.243-14.789-33.032-33.032-33.032s-33.032 14.789-33.032 33.032c0 3.438.673 6.688 1.648 9.805-7.177-6.03-16.315-9.805-26.422-9.805-18.126 0-33.353 11.755-38.908 27.998-5.929-2.053-12.271-3.224-18.898-3.224-31.925 0-57.806 25.881-57.806 57.806h346.839c-.003-31.926-25.884-57.806-57.809-57.806z" fill="#fff"/><path d="m266.45 25.897s-31.7 11.074-33.383 54.899l66.617.003c-8.096-20.339-19.409-38.88-33.234-54.902z" fill="#ff8086"/><path d="m266.451 25.896c-1.475-1.71-2.969-3.377-4.5-5.029-3.176-3.426-8.725-3.426-11.901 0-15.879 17.125-28.777 37.428-37.735 59.932l20.752-.003c8.123-20.249 19.596-38.918 33.384-54.9z" fill="#e5646e"/><path d="m256 122.09c-10.052 0-18.715 6.012-22.6 14.614 3.107-1.403 6.582-2.227 10.213-2.227 13.682 0 24.774 11.092 24.774 24.774 0 3.631-.788 7.092-2.192 10.199 8.602-3.885 14.579-12.534 14.579-22.586 0-13.683-11.092-24.774-24.774-24.774z" fill="#a4ccff"/></g></svg>